# xmcd CD database file
# Copyright (C) 1993-1998 Ti Kan
#
# Track frame offsets:
#	182
#	9950
#	22262
#	30860
#	44987
#	58280
#	72095
#	85025
#	99135
#	130147
#	144950
#	156660
#	170855
#	184715
#	217235
#	230340
#	246152
#	258300
#	274247
#
# Disc length: 3837 seconds
#
# Revision: 1
# Processed by: cddbd v1.4b41PL1 Copyright (c) Steve Scherf et al.
# Submitted via: CDValet v3.31 - Copyright (c) 1997 Greg Leichner
#
DISCID=130efb13
DTITLE=Various Blues - All-Time 75 Blues Hits Disk 4
DYEAR=1900
DGENRE=
TTITLE0=Dusty road (John Lee Hooker)
TTITLE1=The sky is crying (Elmore James)
TTITLE2=Leevee Break Blues (Big Joe Williams)
TTITLE3=Whole lotta love (B.B. King)
TTITLE4=Tell me Baby (Leadbelly)
TTITLE5=You´re so fine (Little Walter)
TTITLE6=I just want to make love to you (Muddy Waters)
TTITLE7=MY life (Howlin´Wolf)
TTITLE8=Outside help (B.B. King)
TTITLE9=The house of the rising sun (Leadbelly)
TTITLE10=My babe (Little Walter)
TTITLE11=One more mile (Muddy Waters)
TTITLE12=It hurts me too (Elmore James)
TTITLE13=Ball and chain (Big Mama Thornton)
TTITLE14=Goodnight Irene (Leadbelly)
TTITLE15=Nobody knows when your down and out (Big Joe Williams)
TTITLE16=Spoonful (Howlin´ Wolf)
TTITLE17=Long nights (B.B. King)
TTITLE18=Looky Yonder, Black Batty (Leadbelly Medley)
EXTD=
EXTT0=
EXTT1=
EXTT2=
EXTT3=
EXTT4=
EXTT5=
EXTT6=
EXTT7=
EXTT8=
EXTT9=
EXTT10=
EXTT11=
EXTT12=
EXTT13=
EXTT14=
EXTT15=
EXTT16=
EXTT17=
EXTT18=
PLAYORDER=
